# xmcd
#
# Track frame offsets: 
#        150
#        12309
#        23746
#        35865
#        48184
#        61532
#        74985
#        88539
#        99408
#        112956
#        124774
#        134952
#        146230
#        159688
#
# Disc length: 2258 seconds
#
# Revision: 0
# Processed by: cddbd v1.5.2PL0 Copyright (c) Steve Scherf et al.
# Submitted via: ExactAudioCopy v0.99pb4
#
DISCID=cb08d00e
DTITLE=Ray Price - Big Hits and Favorites Disc 1
DYEAR=1959
DGENRE=Country
TTITLE0=Talk To Your Heart
TTITLE1=If You're Ever Lonely Darling
TTITLE2=You've Got My Troubles Now
TTITLE3=Don't Let The Stars Get In Yor Eyes
TTITLE4=The Price For Loving You
TTITLE5=Made A Mistake And I'm Sorry
TTITLE6=Weary Blues (From Waiting)
TTITLE7=I Saw My Castles Fall Today
TTITLE8=Heart Aching Blues
TTITLE9=The Road Of No Return
TTITLE10=You're Under Arrest (For Stealing My Heart)
TTITLE11=I Can't Escape From You
TTITLE12=I Know I'll Never Win Your Love Again
TTITLE13=That's What I Get For Loving You
EXTD=
EXTT0=
EXTT1=
EXTT2=
EXTT3=
EXTT4=
EXTT5=
EXTT6=
EXTT7=
EXTT8=
EXTT9=
EXTT10=
EXTT11=
EXTT12=
EXTT13=
PLAYORDER=
